<svg xmlns="http://www.w3.org/2000/svg" viewBox="0 0 64 64" role="img" aria-label="鯤鯓記憶">
  <rect width="64" height="64" rx="14" fill="#f6faf8"/>
  <path d="M4.8 15.6c4.3 3.9 8.9 5.4 14.2 5.3 1.2 0 2.1.1 2.8.5.7-2.1 2.4-3.6 5.4-4.4 3.5-.9 6.8-2.1 9.9-5.1.8 5.4-1.4 9.3-5.8 11.7-4 2.2-3.6 6.4-.2 9.3 3.3 2.9 7.9 3.4 12.1 1.7" fill="none" stroke="#233342" stroke-width="3.5" stroke-linecap="round" stroke-linejoin="round"/>
  <path d="M9.2 22.8c6.6 4.1 14.4 4.3 15.5 9.2 1.4 6.1 4.9 10.3 10.7 12.5" fill="none" stroke="#233342" stroke-width="3.5" stroke-linecap="round" stroke-linejoin="round"/>
  <path d="M29.2 40.1c-3.9.4-6.8 2.6-9 6.6 4.1.1 7.6-1.3 10.9-4.2" fill="none" stroke="#233342" stroke-width="3.5" stroke-linecap="round" stroke-linejoin="round"/>
  <path d="M40.6 22.6c1.7-3.2 4.5-4.3 8.4-3.5l8.3 1.6c2.4.5 3.8 2 3.8 4.4v7.1c0 2.2-1.3 3.5-3.8 3.7l-8.8.6c-3.1.2-4.9-.8-5.4-3.1l-2.3 1.2c-1.6.8-3.4.8-5.1-.1" fill="none" stroke="#233342" stroke-width="3.5" stroke-linecap="round" stroke-linejoin="round"/>
  <path d="M48.8 19.1c-1.8 4.9-1.8 10.5-.1 16.8" fill="none" stroke="#233342" stroke-width="2.6" stroke-linecap="round"/>
  <path d="M43.2 33.4 35 27.1l-6.5 1.1" fill="none" stroke="#233342" stroke-width="1.2" stroke-linecap="round" opacity=".58"/>
  <path d="M48.8 19.1 55.2 34M35 27.1l8.2 6.3-2.6 6.1M43.2 33.4l5.5 2.5 8.6-15.2" fill="none" stroke="#233342" stroke-width="1.2" stroke-linecap="round" opacity=".46"/>
</svg>
